<svg xmlns="http://www.w3.org/2000/svg" xmlns:xlink="http://www.w3.org/1999/xlink" version="1.1" width="256" height="256" viewBox="0 0 256 256" xml:space="preserve">
<desc>Created with Fabric.js 1.7.22</desc>
<defs>
</defs>
<g transform="translate(128 128) scale(0.72 0.72)" style="">
	<g style="stroke: none; stroke-width: 0; stroke-dasharray: none; stroke-linecap: butt; stroke-linejoin: miter; stroke-miterlimit: 10; fill: none; fill-rule: nonzero; opacity: 1;" transform="translate(-175.05 -175.05000000000004) scale(3.89 3.89)" >
	<path d="M 45 68.988 c -1.104 0 -2 -0.896 -2 -2 V 23.011 c 0 -1.104 0.896 -2 2 -2 s 2 0.896 2 2 v 43.977 C 47 68.093 46.104 68.988 45 68.988 z" style="stroke: none; stroke-width: 1; stroke-dasharray: none; stroke-linecap: butt; stroke-linejoin: miter; stroke-miterlimit: 10; fill: rgb(0,0,0); fill-rule: nonzero; opacity: 1;" transform=" matrix(1 0 0 1 0 0) " stroke-linecap="round" />
	<path d="M 66.988 47 H 23.011 c -1.104 0 -2 -0.896 -2 -2 s 0.896 -2 2 -2 h 43.977 c 1.104 0 2 0.896 2 2 S 68.093 47 66.988 47 z" style="stroke: none; stroke-width: 1; stroke-dasharray: none; stroke-linecap: butt; stroke-linejoin: miter; stroke-miterlimit: 10; fill: rgb(0,0,0); fill-rule: nonzero; opacity: 1;" transform=" matrix(1 0 0 1 0 0) " stroke-linecap="round" />
	<path d="M 73.952 90 H 16.048 C 7.199 90 0 82.801 0 73.952 V 16.048 C 0 7.199 7.199 0 16.048 0 h 57.904 C 82.801 0 90 7.199 90 16.048 v 57.904 C 90 82.801 82.801 90 73.952 90 z M 16.048 4 C 9.405 4 4 9.405 4 16.048 v 57.904 C 4 80.596 9.405 86 16.048 86 h 57.904 C 80.596 86 86 80.596 86 73.952 V 16.048 C 86 9.405 80.596 4 73.952 4 H 16.048 z" style="stroke: none; stroke-width: 1; stroke-dasharray: none; stroke-linecap: butt; stroke-linejoin: miter; stroke-miterlimit: 10; fill: rgb(0,0,0); fill-rule: nonzero; opacity: 1;" transform=" matrix(1 0 0 1 0 0) " stroke-linecap="round" />
</g>
</g>
</svg>